<?xml version="1.0" encoding="UTF-8" standalone="no"?>
<svg
   width="21.615234"
   height="21.613281"
   viewBox="0 0 21.615234 21.613281"
   version="1.1"
   id="svg4"
   sodipodi:docname="favicon.svg"
   inkscape:version="1.2 (dc2aedaf03, 2022-05-15)"
   xml:space="preserve"
   inkscape:export-filename="..\..\..\..\..\Downloads\favicon.png"
   inkscape:export-xdpi="1000"
   inkscape:export-ydpi="1000"
   xmlns:inkscape="http://www.inkscape.org/namespaces/inkscape"
   xmlns:sodipodi="http://sodipodi.sourceforge.net/DTD/sodipodi-0.dtd"
   xmlns="http://www.w3.org/2000/svg"
   xmlns:svg="http://www.w3.org/2000/svg"><defs
     id="defs8"><clipPath
       clipPathUnits="userSpaceOnUse"
       id="clipPath1686"><rect
         style="fill:#e6e6e6;stroke-width:2.26772"
         id="rect1688"
         width="7.3454676"
         height="16.210688"
         x="-11.313708"
         y="3.2083652" /></clipPath></defs><sodipodi:namedview
     id="namedview6"
     pagecolor="#505050"
     bordercolor="#eeeeee"
     borderopacity="1"
     inkscape:showpageshadow="0"
     inkscape:pageopacity="0"
     inkscape:pagecheckerboard="0"
     inkscape:deskcolor="#505050"
     showgrid="false"
     inkscape:zoom="11.844039"
     inkscape:cx="21.234311"
     inkscape:cy="13.635552"
     inkscape:window-width="1920"
     inkscape:window-height="991"
     inkscape:window-x="-9"
     inkscape:window-y="-9"
     inkscape:window-maximized="1"
     inkscape:current-layer="svg4" /><path
     id="path894"
     style="fill:#ffffff;stroke-width:2.95438"
     d="M 10.806641,9.9977188e-8 A 10.807124,10.807124 0 0 0 0,10.806641 10.807124,10.807124 0 0 0 10.806641,21.613282 10.807124,10.807124 0 0 0 21.615235,10.806641 10.807124,10.807124 0 0 0 10.806641,9.9977188e-8 Z M 12.414063,5.0273438 c 0.07297,-0.012755 0.135696,0.01596 0.201172,0.080078 0.176344,0.1726912 0.172138,0.4414106 -0.01758,1.1816407 -0.197457,0.770439 -0.198511,1.2909123 -0.0078,2.6542969 0.130474,0.9326699 0.275848,1.7328786 0.322266,1.7792976 0.04642,0.04642 0.20933,-0.08167 0.363281,-0.285157 0.252126,-0.33326 0.281609,-0.201486 0.287109,1.326172 0.0046,1.273453 -0.05417,1.675183 -0.234375,1.615235 -0.132,-0.04391 -0.299925,-0.330585 -0.373047,-0.638672 -0.140057,-0.590115 -0.01773,0.766766 0.148438,1.646484 0.33447,1.770766 0.329908,1.921875 -0.07227,1.921875 -0.27367,0 -0.529242,-0.284722 -0.867187,-0.96289 -0.263406,-0.528587 -0.436726,-1.12357 -0.384766,-1.322266 0.05196,-0.198695 -4.43e-4,-0.419284 -0.115234,-0.490234 -0.1148,-0.07095 -0.213281,-0.403267 -0.220703,-0.740235 -0.0074,-0.336967 -0.08171,-0.7851 -0.164063,-0.996094 -0.132282,-0.338934 -0.163137,-0.317161 -0.261719,0.191407 -0.310748,1.603112 -0.444393,1.919921 -0.814453,1.919922 -0.2162848,0 -0.404002,-0.156591 -0.445312,-0.371094 C 9.71859,13.333378 9.577549,13.058012 9.443367,12.923828 9.309184,12.789646 9.139431,12.201608 9.066413,11.617188 8.835134,9.7660867 8.563817,10.119035 8.306648,12.609375 c -0.03531,0.341908 -0.171318,0.75181 -0.302735,0.910157 -0.131415,0.158346 -0.182719,0.43156 -0.115234,0.607422 0.130237,0.339393 -0.195095,1.570445 -0.5,1.892578 C 6.534107,16.92239 6.580435,11.828616 7.457039,8.53125 7.644287,7.8269123 7.813976,7.5563668 8.09571,7.5136718 8.30691,7.4816658 8.609186,7.1793907 8.767585,6.8417968 9.100425,6.1324242 9.867783,5.9547788 9.763679,6.6113281 9.647143,7.3462878 9.65988,8.1513953 9.800789,8.8808594 c 0.1816452,0.9403751 0.556758,0.6934843 0.876953,-0.578125 0.123067,-0.4887429 0.347334,-1.0671964 0.5,-1.2851563 0.152664,-0.2179602 0.278772,-0.52815 0.279297,-0.6894531 5.17e-4,-0.1613033 0.20925,-0.552341 0.464843,-0.8691406 0.222143,-0.2753381 0.370575,-0.4103826 0.492188,-0.4316407 z" /></svg>
