<?xml version="1.0" encoding="UTF-8" standalone="no"?>
<svg
   height="48"
   viewBox="0 0 48 48"
   width="48"
   version="1.1"
   id="svg6"
   sodipodi:docname="info.svg"
   inkscape:version="1.2 (dc2aedaf03, 2022-05-15)"
   xmlns:inkscape="http://www.inkscape.org/namespaces/inkscape"
   xmlns:sodipodi="http://sodipodi.sourceforge.net/DTD/sodipodi-0.dtd"
   xmlns="http://www.w3.org/2000/svg"
   xmlns:svg="http://www.w3.org/2000/svg">
  <defs
     id="defs10" />
  <sodipodi:namedview
     id="namedview8"
     pagecolor="#505050"
     bordercolor="#eeeeee"
     borderopacity="1"
     inkscape:showpageshadow="0"
     inkscape:pageopacity="0"
     inkscape:pagecheckerboard="0"
     inkscape:deskcolor="#505050"
     showgrid="false"
     inkscape:zoom="23.688077"
     inkscape:cx="28.769748"
     inkscape:cy="21.930864"
     inkscape:window-width="1920"
     inkscape:window-height="991"
     inkscape:window-x="-9"
     inkscape:window-y="-9"
     inkscape:window-maximized="1"
     inkscape:current-layer="svg6" />
  <path
     d="M0 0h48v48h-48z"
     fill="none"
     id="path2" />
  <path
     d="m 23.940299,4 c -11.05,0 -20.0000005,8.95 -20.0000005,20 0,11.05 8.9500005,20 20.0000005,20 11.05,0 20,-8.95 20,-20 0,-11.05 -8.95,-20 -20,-20 z m 2,30 h -4 V 22 h 4 z m 0,-16 c -0.942809,0.942809 -3.057191,0.942809 -4,0 -0.942809,-0.942809 -0.942809,-3.057191 0,-4 0.942809,-0.942809 3.057191,-0.942809 4,0 0.942809,0.942809 0.942809,3.057191 0,4 z"
     id="path4"
     style="fill:#ffffff"
     sodipodi:nodetypes="ssssscccccsssss" />
</svg>
