<?xml version="1.0" encoding="UTF-8" standalone="no"?>
<!-- Created with Inkscape (http://www.inkscape.org/) -->

<svg
   width="84.929367mm"
   height="84.921448mm"
   viewBox="0 0 84.929366 84.921448"
   version="1.1"
   id="svg3048"
   xml:space="preserve"
   inkscape:version="1.2 (dc2aedaf03, 2022-05-15)"
   sodipodi:docname="linkedin.svg"
   xmlns:inkscape="http://www.inkscape.org/namespaces/inkscape"
   xmlns:sodipodi="http://sodipodi.sourceforge.net/DTD/sodipodi-0.dtd"
   xmlns="http://www.w3.org/2000/svg"
   xmlns:svg="http://www.w3.org/2000/svg"><sodipodi:namedview
     id="namedview3050"
     pagecolor="#505050"
     bordercolor="#eeeeee"
     borderopacity="1"
     inkscape:showpageshadow="0"
     inkscape:pageopacity="0"
     inkscape:pagecheckerboard="0"
     inkscape:deskcolor="#505050"
     inkscape:document-units="mm"
     showgrid="false"
     inkscape:zoom="0.71624579"
     inkscape:cx="182.20002"
     inkscape:cy="366.4943"
     inkscape:window-width="1920"
     inkscape:window-height="991"
     inkscape:window-x="-9"
     inkscape:window-y="-9"
     inkscape:window-maximized="1"
     inkscape:current-layer="layer1" /><defs
     id="defs3045" /><g
     inkscape:label="Layer 1"
     inkscape:groupmode="layer"
     id="layer1"
     transform="translate(-89.102438,35.830509)"><path
       style="fill:#ffffff;stroke-width:0.0402052"
       d="m 129.97951,49.062677 c -9.35304,-0.33176 -18.37141,-3.78664 -25.58226,-9.80041 -1.06483,-0.88805 -1.67552,-1.45038 -2.84304,-2.61791 -1.794209,-1.79421 -3.066129,-3.28247 -4.468628,-5.22869 -6.10943,-8.47796 -8.874558,-18.998274 -7.730065,-29.4101245 0.975103,-8.870865 4.620152,-17.0295045 10.606889,-23.7411855 0.624074,-0.699647 2.542594,-2.618163 3.242234,-3.242239 5.98011,-5.334186 13.1267,-8.820508 20.91769,-10.204282 4.86711,-0.86446 10.02709,-0.86446 14.8942,0 5.25525,0.933397 10.24636,2.834242 14.80649,5.639002 2.09006,1.285518 4.13476,2.810332 6.05088,4.512405 0.77532,0.688706 2.6648,2.578032 3.3557,3.355422 4.6447,5.226188 7.87798,11.32752 9.54505,18.0119405 1.68199,6.74418 1.67608,13.8812635 -0.0171,20.6511915 -1.5248,6.09677 -4.46841,11.9044 -8.47434,16.71956 -1.18587,1.42542 -3.11084,3.42771 -4.38086,4.55682 -4.34451,3.86246 -9.23093,6.72593 -14.59556,8.55308 -4.95582,1.6879 -10.04129,2.43291 -15.32731,2.24542 z m -12.75395,-18.31756 c 0.0988,-0.0469 0.16511,-0.11933 0.21731,-0.23732 0.073,-0.16507 0.0748,-0.61795 0.0649,-16.09208 l -0.0102,-15.9222365 -0.084,-0.113512 c -0.17296,-0.233653 0.12546,-0.221529 -5.36788,-0.21809 -5.5642,0.0035 -5.2304,-0.01171 -5.36262,0.243981 -0.0542,0.104837 -0.061,1.88784096 -0.0609,16.0512575 0,15.08866 0.004,15.94077 0.0704,16.07403 0.0402,0.0805 0.13051,0.1708 0.21102,0.21101 0.13171,0.0658 0.46198,0.0703 5.16029,0.0704 4.61527,0 5.03103,-0.005 5.16174,-0.0674 z m 16.83263,0.0114 c 0.0738,-0.0308 0.16367,-0.0982 0.19973,-0.14967 0.0601,-0.0859 0.0656,-0.85575 0.0656,-9.3276 0,-6.16901 0.014,-9.370722 0.0423,-9.645923 0.21288,-2.0745365 1.19065,-3.7142055 2.86289,-4.8009575 1.03625,-0.673433 2.30518,-0.992791 3.44726,-0.867588 1.29704,0.14219 2.34033,0.648176 3.22862,1.565857 0.95944,0.991179 1.44084,2.140288 1.70358,4.0664555 0.0619,0.453596 0.0703,1.350594 0.0909,9.673856 l 0.0227,9.17391 0.0833,0.1135 c 0.0458,0.0624 0.14531,0.14513 0.22113,0.18379 0.12906,0.0658 0.45707,0.0703 5.13734,0.0704 5.63952,0 5.21332,0.0245 5.36003,-0.30716 0.0743,-0.1679 0.0759,-0.42425 0.0625,-10.014 -0.0148,-10.6652425 -0.003,-10.06438 -0.23061,-11.7830805 -0.38054,-2.874296 -1.25185,-5.139165 -2.69458,-7.004273 -0.38906,-0.502955 -1.20517,-1.33503604 -1.70732,-1.74072504 -2.09503,-1.69260096 -4.84774,-2.57153596 -8.06114,-2.57390796 -1.94977,-0.0014 -3.48358,0.328551 -5.00555,1.076912 -1.52658,0.75062596 -2.8334,1.86519896 -3.93207,3.353627 -0.15698,0.212663 -0.3587,0.472586 -0.44827,0.577607 l -0.16285,0.190948 -0.0201,-2.08645704 c -0.0194,-2.01501896 -0.0228,-2.08951296 -0.10051,-2.17566996 -0.0442,-0.04907 -0.12265,-0.105363 -0.17428,-0.125103 -0.053,-0.02028 -2.29279,-0.03774 -5.14952,-0.04014 -4.59139,-0.0039 -5.06724,0.0017 -5.18188,0.06102 -0.0694,0.0359 -0.14926,0.105792 -0.17741,0.155318 -0.0411,0.07235 -0.0541,3.018072 -0.0657,14.9860805 -0.008,8.192824 -0.0171,15.384534 -0.0203,15.981584 -0.007,1.21343 0.004,1.2714 0.25548,1.39706 0.13168,0.0658 0.46275,0.0703 5.17767,0.0704 4.21688,0 5.05884,-0.009 5.17117,-0.056 z M 113.50922,-6.3740095 c 0.62623,-0.125936 1.10215,-0.29014 1.69668,-0.585396 1.3394,-0.665175 2.29317,-1.753826 2.73057,-3.1167225 0.21838,-0.680464 0.28497,-1.128516 0.2838,-1.909748 -0.001,-0.767602 -0.0524,-1.089543 -0.28462,-1.787503 -0.63014,-1.893944 -2.32465,-3.282369 -4.49878,-3.686149 -0.6271,-0.116464 -2.12693,-0.10646 -2.74738,0.01833 -2.18407,0.439266 -3.75093,1.725401 -4.40444,3.615316 -0.91576,2.648339 0.10117,5.4185245 2.48801,6.7775585 0.63158,0.359611 1.41399,0.616892 2.23075,0.733539 0.59171,0.08451 1.9504,0.05239 2.50541,-0.05922 z"
       id="path4996" /></g></svg>
