<?xml version="1.0" encoding="UTF-8" standalone="no"?>
<!-- Created with Inkscape (http://www.inkscape.org/) -->

<svg
   width="134.70844mm"
   height="134.71638mm"
   viewBox="0 0 134.70844 134.71639"
   version="1.1"
   id="svg5064"
   xml:space="preserve"
   inkscape:version="1.2 (dc2aedaf03, 2022-05-15)"
   sodipodi:docname="medium.svg"
   xmlns:inkscape="http://www.inkscape.org/namespaces/inkscape"
   xmlns:sodipodi="http://sodipodi.sourceforge.net/DTD/sodipodi-0.dtd"
   xmlns="http://www.w3.org/2000/svg"
   xmlns:svg="http://www.w3.org/2000/svg"><sodipodi:namedview
     id="namedview5066"
     pagecolor="#505050"
     bordercolor="#eeeeee"
     borderopacity="1"
     inkscape:showpageshadow="0"
     inkscape:pageopacity="0"
     inkscape:pagecheckerboard="0"
     inkscape:deskcolor="#505050"
     inkscape:document-units="mm"
     showgrid="false"
     inkscape:zoom="0.71624579"
     inkscape:cx="263.17781"
     inkscape:cy="405.58703"
     inkscape:window-width="1920"
     inkscape:window-height="991"
     inkscape:window-x="-9"
     inkscape:window-y="-9"
     inkscape:window-maximized="1"
     inkscape:current-layer="layer1" /><defs
     id="defs5061" /><g
     inkscape:label="Layer 1"
     inkscape:groupmode="layer"
     id="layer1"
     transform="translate(1.9698321,-41.249736)"><path
       style="fill:#ffffff;stroke-width:0.264583"
       d="m 58.372876,175.78027 c -10.67216,-1.15042 -21.55917,-5.12359 -30.55938,-11.1525 -15.85882,-10.62324 -26.3040905,-27.20728 -29.2864505,-46.49829 -0.66215,-4.28301 -0.66259,-14.76201 -8e-4,-19.050003 2.35489002,-15.258424 9.12947,-28.480963 19.9296405,-38.898439 10.46746,-10.096563 22.71971,-16.133223 37.40344,-18.428602 4.26736,-0.667079 14.73817,-0.671032 19.05,-0.0072 15.14973,2.332418 28.447024,9.121928 38.770884,19.796163 10.15493,10.499578 16.30377,22.934814 18.56141,37.538069 0.66265,4.286282 0.66265,14.763712 0,19.050002 -2.33728,15.1184 -9.13406,28.42637 -19.80145,38.77087 -10.39711,10.0824 -22.921874,16.30635 -37.266254,18.5188 -3.34605,0.51608 -13.36566,0.73145 -16.80104,0.36112 z m -10.29047,-37.6964 c 5.932,-1.20194 11.26431,-4.1282 15.46732,-8.48815 5.75857,-5.97362 8.53743,-12.80607 8.53743,-20.99124 0,-8.11101 -2.76963,-14.984759 -8.40456,-20.858702 -7.53682,-7.856489 -18.4464,-10.953601 -28.92528,-8.211573 -14.48746,3.790955 -24.08211,18.261342 -22.00591,33.188685 2.12391,15.27035 15.64408,26.62611 30.8048,25.87335 1.45521,-0.0722 3.492,-0.30282 4.5262,-0.51237 z m 45.73912,-2.20486 c 4.73845,-2.33273 8.641154,-9.31348 10.381144,-18.56873 0.66689,-3.54726 0.66689,-13.86435 0,-17.41161 -0.78067,-4.152508 -1.73935,-7.144276 -3.36239,-10.493115 -1.249604,-2.578293 -1.910644,-3.581162 -3.439874,-5.218647 -2.56247,-2.743869 -4.56576,-3.760555 -7.40983,-3.760555 -2.75944,0 -4.83173,1.019712 -7.22237,3.553913 -4.93526,5.231635 -7.59117,13.846886 -7.59117,24.624214 0,10.66743 2.64346,19.34152 7.46528,24.49606 3.55237,3.79749 7.24503,4.71526 11.17921,2.77847 z m 20.230004,-2.44545 c 1.4741,-1.37333 2.81062,-6.0666 3.64242,-12.79054 0.64657,-5.22664 0.64657,-18.85045 0,-24.077084 -0.88613,-7.163136 -2.44278,-12.251081 -4.00379,-13.086508 -1.95086,-1.04407 -3.79113,2.924183 -4.91977,10.608722 -2.22949,15.17986 -0.31145,36.83196 3.49919,39.50103 0.783,0.54844 1.05139,0.525 1.78195,-0.15562 z"
       id="path6286" /></g></svg>
